<?xml version="1.0" encoding="UTF-8" standalone="no"?>
<svg
   id="Ebene_1"
   version="1.1"
   viewBox="0 0 586.3008 195.07499"
   sodipodi:docname="logo.svg"
   width="586.30078"
   height="195.075"
   inkscape:version="1.3.2 (091e20e, 2023-11-25, custom)"
   xmlns:inkscape="http://www.inkscape.org/namespaces/inkscape"
   xmlns:sodipodi="http://sodipodi.sourceforge.net/DTD/sodipodi-0.dtd"
   xmlns="http://www.w3.org/2000/svg"
   xmlns:svg="http://www.w3.org/2000/svg">
  <sodipodi:namedview
     id="namedview1"
     pagecolor="#ffffff"
     bordercolor="#666666"
     borderopacity="1.0"
     inkscape:showpageshadow="2"
     inkscape:pageopacity="0.0"
     inkscape:pagecheckerboard="0"
     inkscape:deskcolor="#d1d1d1"
     showgrid="false"
     inkscape:lockguides="false"
     inkscape:zoom="1.8572944"
     inkscape:cx="298.28335"
     inkscape:cy="97.722794"
     inkscape:window-width="1920"
     inkscape:window-height="1171"
     inkscape:window-x="-9"
     inkscape:window-y="-9"
     inkscape:window-maximized="1"
     inkscape:current-layer="Ebene_1" />
  <!-- Generator: Adobe Illustrator 29.8.2, SVG Export Plug-In . SVG Version: 2.1.1 Build 3)  -->
  <defs
     id="defs1">
    <style
       id="style1">
      .st0 {
        fill: #363636;
      }

      .st1 {
        fill: #e42110;
      }
    </style>
  </defs>
  <g
     id="Gruppe_8">
    <path
       id="Pfad_474"
       class="st0"
       d="m 121.8,164.3 v 30.4 h -3.7 v -30.4 z m 32.8,0 v 30.4 H 151 l -16.6,-23.9 h -0.3 v 23.9 h -3.7 v -30.4 h 3.6 l 16.6,23.9 h 0.3 v -23.9 h 3.6 z m 7,3.3 v -3.3 h 22.8 v 3.3 h -9.6 v 27.1 h -3.7 v -27.1 h -9.6 z m 29.9,27.1 v -30.4 h 18.4 v 3.3 h -14.7 v 10.3 h 13.7 v 3.3 h -13.7 v 10.3 h 14.9 v 3.3 h -18.6 z m 26.3,0 v -30.4 h 10.3 c 2,0 4,0.3 5.9,1.2 1.4,0.7 2.6,1.9 3.4,3.3 0.8,1.5 1.1,3.1 1.1,4.8 0,1.7 -0.3,3.3 -1.1,4.8 -0.8,1.4 -1.9,2.6 -3.4,3.3 -1.8,0.9 -3.8,1.3 -5.8,1.2 h -8.3 v -3.3 h 8.2 c 1.3,0 2.7,-0.2 3.9,-0.7 0.9,-0.4 1.7,-1.1 2.2,-2 0.5,-1 0.7,-2.1 0.7,-3.1 0,-1.1 -0.2,-2.2 -0.7,-3.2 -0.5,-0.9 -1.2,-1.7 -2.2,-2.1 -1.2,-0.5 -2.6,-0.8 -4,-0.8 h -6.5 v 27.1 h -3.7 z m 14.3,-13.7 7.5,13.7 h -4.3 L 227.9,181 Z m 14.3,-16.7 9,25.6 h 0.4 l 9,-25.6 h 3.9 l -11.2,30.4 h -3.8 l -11.2,-30.4 z m 32.1,0 v 30.4 h -3.7 v -30.4 z m 8.7,30.4 v -30.4 h 18.4 v 3.3 h -14.7 v 10.3 h 13.7 v 3.3 h -13.7 v 10.3 h 14.9 v 3.3 h -18.6 z m 31.8,0 -8.3,-30.4 h 3.7 l 6.4,24.8 h 0.3 l 6.5,-24.8 h 4.2 l 6.5,24.8 h 0.3 l 6.3,-24.8 h 3.7 l -8.3,30.4 h -3.8 l -6.7,-24.2 h -0.2 l -6.7,24.2 h -3.8 z m 48.6,0 v -30.4 h 10.3 c 2,0 4,0.4 5.9,1.3 1.5,0.8 2.6,2 3.4,3.5 0.7,1.5 1.1,3.2 1.1,4.9 0,1.7 -0.4,3.4 -1.1,4.9 -0.7,1.5 -1.9,2.7 -3.4,3.5 -1.8,0.9 -3.8,1.4 -5.8,1.3 h -7.4 v -3.3 h 7.2 c 1.4,0 2.7,-0.2 3.9,-0.8 0.9,-0.5 1.7,-1.3 2.2,-2.3 0.5,-1 0.7,-2.1 0.7,-3.3 0,-1.1 -0.2,-2.2 -0.7,-3.3 -0.5,-1 -1.2,-1.8 -2.2,-2.3 -1.2,-0.6 -2.6,-0.9 -4,-0.8 h -6.5 v 27.1 h -3.7 z m 53.6,-15.2 c 0,2.9 -0.5,5.7 -1.7,8.3 -1,2.2 -2.7,4.1 -4.8,5.4 -4.3,2.5 -9.6,2.5 -13.8,0 -2.1,-1.3 -3.7,-3.2 -4.8,-5.4 -1.2,-2.6 -1.8,-5.4 -1.7,-8.3 0,-2.9 0.5,-5.7 1.7,-8.3 1,-2.2 2.7,-4.1 4.8,-5.4 4.3,-2.5 9.6,-2.5 13.8,0 2.1,1.3 3.7,3.2 4.8,5.4 1.2,2.6 1.8,5.4 1.7,8.3 z m -3.6,0 c 0,-2.3 -0.4,-4.6 -1.3,-6.7 -0.8,-1.7 -2,-3.1 -3.5,-4.1 -3.1,-1.9 -6.9,-1.9 -10,0 -1.6,1 -2.8,2.4 -3.5,4.1 -0.9,2.1 -1.4,4.4 -1.3,6.7 0,2.3 0.4,4.6 1.3,6.7 0.8,1.7 2,3.1 3.5,4.1 3.1,1.9 6.9,1.9 10,0 1.6,-1 2.8,-2.4 3.5,-4.1 0.9,-2.1 1.4,-4.4 1.3,-6.7 z m 11.1,15.2 V 164.3 H 439 c 2,0 4,0.3 5.9,1.2 1.4,0.7 2.6,1.9 3.4,3.3 0.8,1.5 1.1,3.1 1.1,4.8 0,1.7 -0.3,3.3 -1.1,4.8 -0.8,1.4 -1.9,2.6 -3.4,3.3 -1.8,0.9 -3.8,1.3 -5.8,1.2 h -8.3 v -3.3 h 8.2 c 1.3,0 2.7,-0.2 3.9,-0.7 0.9,-0.4 1.7,-1.1 2.2,-2 0.5,-1 0.7,-2.1 0.7,-3.1 0,-1.1 -0.2,-2.2 -0.7,-3.2 -0.5,-0.9 -1.2,-1.7 -2.2,-2.1 -1.2,-0.5 -2.6,-0.8 -4,-0.8 h -6.5 v 27.1 h -3.7 z M 443,181 l 7.5,13.7 h -4.3 L 438.8,181 Z m 12.1,-13.4 v -3.3 h 22.8 v 3.3 h -9.6 v 27.1 h -3.7 V 167.6 H 455 Z m 27.5,27.1 h -3.9 l 11.2,-30.4 h 3.8 l 11.2,30.4 H 501 l -9.1,-25.6 h -0.2 z m 1.5,-11.9 h 15.6 v 3.3 h -15.6 z m 26.9,11.9 v -30.4 h 3.7 v 27.1 h 14.1 v 3.3 z" />
  </g>
  <g
     id="g74">
    <path
       d="m 473.80078,83.099609 v 3 h 0.0996 c 1.2,-0.1 2.40039,0.200782 3.40039,0.800782 0.8,0.499998 1.19922,1.700002 1.19922,3.5 V 104.5 c 0,4.2 0.89961,7.29922 2.59961,9.19922 1.7,1.9 4.20039,2.90039 7.40039,2.90039 h 0.0996 c 1.8,0 3.70039,-0.3 5.40039,-1 1.9,-0.8 3.50039,-2.29922 4.40039,-4.19922 h 0.29883 L 499.90039,116 h 11.29883 v -3 h -0.39844 c -1.1,0.1 -2.20117,-0.0996 -3.20117,-0.59961 -0.9,-0.4 -1.29883,-1.50078 -1.29883,-3.30078 V 83.099609 h -12.90039 v 3 h 0.19922 c 0.8,0 1.50078,0.100782 2.30078,0.300782 0.7,0.1 1.29922,0.499611 1.69922,1.099609 0.4,0.799998 0.59961,1.799221 0.59961,2.699219 v 12.101561 c 0.1,2.4 -0.4,4.8 -1.5,7 -1,1.7 -2.89844,2.69961 -4.89844,2.59961 -2,0 -3.50117,-0.80078 -4.20117,-2.30078 -0.8,-2 -1.09961,-4.09883 -1.09961,-6.29883 V 83.099609 Z"
       style="fill:#e42110;stroke-width:1.00157"
       id="path74" />
    <path
       d="m 306.5,83.099609 v 3 h 0.59961 c 0.7,0 1.39961,0.100782 2.09961,0.300782 0.7,0.199998 1.30078,0.59961 1.80078,1.099609 0.5,0.699998 0.69922,1.600002 0.69922,2.5 v 19 c 0.1,0.9 -0.19922,1.79961 -0.69922,2.59961 -0.5,0.5 -1.10078,0.89961 -1.80078,1.09961 -0.7,0.3 -1.39961,0.30078 -2.09961,0.30078 h -0.79883 v 3 h 18.79883 v -3 h -0.69922 c -0.8,0 -1.50117,-0.10078 -2.20117,-0.30078 -0.7,-0.1 -1.39883,-0.49961 -1.79883,-1.09961 -0.5,-0.8 -0.70117,-1.69922 -0.70117,-2.69922 V 83.099609 Z"
       style="fill:#e42110;stroke-width:1.00157"
       id="path73" />
    <path
       d="m 464.40039,82.400391 c -2.6,0 -4.39961,0.499611 -5.59961,1.599609 -1.3,1.299998 -2.3,2.800393 -3,4.400391 H 455.5 l -1.19922,-5.300782 H 443 v 3 h 0.19922 c 1.2,-0.1 2.40039,0.201174 3.40039,0.701172 0.9,0.4 1.30078,1.598442 1.30078,3.398438 V 108.5 c 0,2 -0.50039,3.19922 -1.40039,3.69922 -1.1,0.6 -2.3,0.80078 -3.5,0.80078 h -0.19922 v 3 h 19.5 v -3 h -1.90039 c -1.1,0 -2.20117,-0.19922 -3.20117,-0.69922 -0.9,-0.5 -1.29883,-1.60039 -1.29883,-3.40039 V 98.599609 c 0,-1.099998 0.0992,-2.09922 0.19922,-3.199218 0.1,-1.299998 0.40078,-2.501174 0.80078,-3.701172 0.3,-1.099998 0.89961,-2.100002 1.59961,-3 0.7,-0.799998 1.69922,-1.199219 2.69922,-1.199219 1,-0.1 1.90039,0.399221 2.40039,1.199219 0.5,1.199998 0.70117,2.500783 0.70117,3.800781 1.8,0.1 3.69922,-0.400393 5.19922,-1.400391 1.2,-0.899998 1.80078,-2.400394 1.80078,-3.90039 0,-3.199994 -2.30039,-4.798828 -6.90039,-4.798828 z"
       style="fill:#e42110;stroke-width:1.00157"
       id="path72" />
    <path
       d="m 297.30078,82.400391 c -2.6,0 -4.40156,0.499611 -5.60156,1.599609 -1.3,1.299998 -2.3,2.800393 -3,4.400391 h -0.29883 l -1.20117,-5.300782 h -11.29883 v 3 h 0.19922 c 1.2,-0.1 2.40039,0.201174 3.40039,0.701172 0.9,0.4 1.30078,1.598442 1.30078,3.398438 V 108.5 c 0,2 -0.50039,3.19922 -1.40039,3.69922 -1.1,0.6 -2.3,0.80078 -3.5,0.80078 h -0.20117 v 3 h 19.5 v -3 h -1.89844 c -1.1,0 -2.20117,-0.19922 -3.20117,-0.69922 -0.9,-0.5 -1.29883,-1.60039 -1.29883,-3.40039 V 98.599609 c 0,-1.099998 0.0992,-2.09922 0.19922,-3.199218 0.1,-1.299998 0.40078,-2.501174 0.80078,-3.701172 0.3,-1.099998 0.89961,-2.100002 1.59961,-3 0.7,-0.799998 1.69922,-1.199219 2.69922,-1.199219 1,-0.1 1.90039,0.399221 2.40039,1.199219 0.5,1.199998 0.69922,2.500783 0.69922,3.800781 1.8,0.1 3.70117,-0.400393 5.20117,-1.400391 1.2,-0.899998 1.79883,-2.400394 1.79883,-3.90039 0,-3.199994 -2.29844,-4.798828 -6.89844,-4.798828 z"
       style="fill:#e42110;stroke-width:1.00157"
       id="path71" />
    <path
       d="m 210.90039,82.400391 c -2.6,0 -4.39961,0.499611 -5.59961,1.599609 -1.3,1.299998 -2.3,2.800393 -3,4.400391 H 202 l -1.19922,-5.300782 H 189.5 v 3 h 0.19922 c 1.2,-0.1 2.40039,0.201174 3.40039,0.701172 0.9,0.4 1.30078,1.598442 1.30078,3.398438 V 108.5 c 0,2 -0.50039,3.19922 -1.40039,3.69922 -1.1,0.6 -2.3,0.80078 -3.5,0.80078 h -0.19922 v 3 h 19.5 v -3 h -1.90039 c -1.1,0 -2.20117,-0.19922 -3.20117,-0.69922 -0.9,-0.5 -1.29883,-1.60039 -1.29883,-3.40039 V 98.599609 c 0,-1.099998 0.0992,-2.09922 0.19922,-3.199218 0.1,-1.299998 0.40078,-2.501174 0.80078,-3.701172 0.3,-1.099998 0.89961,-2.100002 1.59961,-3 0.7,-0.799998 1.69922,-1.199219 2.69922,-1.199219 1,-0.1 1.90039,0.399221 2.40039,1.199219 0.5,1.199998 0.70117,2.500783 0.70117,3.800781 1.8,0.1 3.69922,-0.400393 5.19922,-1.400391 1.2,-0.899998 1.80078,-2.400394 1.80078,-3.90039 0,-3.199994 -2.30039,-4.798828 -6.90039,-4.798828 z"
       style="fill:#e42110;stroke-width:1.00157"
       id="path70" />
    <path
       d="m 424.69922,82.300781 c -4.7,0 -8.29883,1.498444 -10.79883,4.398438 -2.5,2.899994 -3.80078,7.60001 -3.80078,13 0,5.399981 1.30039,9.600001 3.90039,12.500001 2.59135,2.89035 6.3781,4.38654 11.35352,4.39648 2.28046,-0.005 4.46328,-0.30156 6.54687,-0.99609 1.4,-0.5 2.69883,-1.30039 3.79883,-2.40039 0.8,-0.8 1.30078,-1.9 1.30078,-3 0.1,-1.1 -0.5,-2.09961 -1.5,-2.59961 -1.8,3 -5.09922,4.80117 -8.69922,4.70117 -2.4,0.1 -4.70117,-0.90039 -6.20117,-2.90039 -1.5,-1.9 -2.30039,-5.00078 -2.40039,-9.30078 H 438.5 v -3.000001 c 0,-4.79999 -1.19922,-8.500004 -3.69922,-11 -2.5,-2.499994 -5.80158,-3.798828 -10.10156,-3.798828 z m 0.10156,3.798828 c 1.9,-0.1 3.59883,1.000784 4.29883,2.800782 1,2.399994 1.40078,4.900004 1.30078,7.5 h -12 -0.0996 c 0.2,-3.399994 0.79844,-5.901176 1.89844,-7.701172 1,-1.599998 2.70156,-2.59961 4.60156,-2.59961 z"
       style="fill:#e42110;stroke-width:1.00157"
       id="path69" />
    <path
       d="m 171.19922,82.300781 c -4.7,0 -8.29883,1.498444 -10.79883,4.398438 -2.5,2.899994 -3.80078,7.60001 -3.80078,13 0,5.399981 1.30039,9.600001 3.90039,12.500001 2.6,2.9 6.40041,4.40039 11.40039,4.40039 2.2,0 4.4,-0.3 6.5,-1 1.4,-0.5 2.69883,-1.30039 3.79883,-2.40039 0.8,-0.8 1.30078,-1.9 1.30078,-3 0.1,-1.1 -0.5,-2.09961 -1.5,-2.59961 -1.8,3 -5.09922,4.80117 -8.69922,4.70117 -2.4,0.1 -4.70117,-0.90039 -6.20117,-2.90039 -1.5,-1.9 -2.30039,-5.00078 -2.40039,-9.30078 H 185 v -3.000001 c 0,-4.79999 -1.19922,-8.500004 -3.69922,-11 -2.5,-2.499994 -5.80158,-3.798828 -10.10156,-3.798828 z m 0,3.798828 c 1.9,-0.1 3.60078,1.000784 4.30078,2.800782 1,2.399994 1.40078,4.900004 1.30078,7.5 h -12 -0.10156 c 0.2,-3.399994 0.80039,-5.901176 1.90039,-7.701172 1,-1.599998 2.69961,-2.59961 4.59961,-2.59961 z"
       style="fill:#e42110;stroke-width:1.00157"
       id="path68" />
    <path
       d="m 536.59961,82.199219 c -1.8,0 -3.59883,0.3 -5.29883,1 -1.6,0.599998 -3.00117,2.100396 -4.20117,4.40039 h -0.29883 L 526,83 h -11.80078 v 3 h 0.20117 c 1.1,-0.1 2.29883,0.199219 3.29883,0.699219 0.9,0.499998 1.30078,1.600394 1.30078,3.40039 v 18.599611 c 0,1.9 -0.50039,3.10156 -1.40039,3.60156 -1.1,0.5 -2.3,0.69922 -3.5,0.69922 h -0.19922 v 3 l -0.0996,0.0996 h 18 v -3 h -0.20117 c -1.1,0.1 -2.29883,-0.19922 -3.29883,-0.69922 C 527.40077,111.9004 527,110.8 527,109 V 96.800781 C 527,95.200785 527.19961,93.599996 527.59961,92 527.89961,90.600002 528.5,89.400389 529.5,88.400391 530.5,87.400393 531.79922,87 533.19922,87 c 1.7,-0.1 3.40078,0.699221 4.30078,2.199219 1,1.899996 1.40078,4.101176 1.30078,6.201172 V 116 h 12.5 v -3 h -0.20117 c -1.1,0 -2.19922,-0.20078 -3.19922,-0.80078 -0.7,-0.5 -1.09961,-1.69961 -1.09961,-3.59961 V 94.199219 c 0,-4.199992 -0.90117,-7.199614 -2.70117,-9.09961 -2,-1.999996 -4.7,-3.10039 -7.5,-2.90039 z"
       style="fill:#e42110;stroke-width:1.00157"
       id="path67" />
    <path
       d="m 390.59961,82.199219 c -1.8,0 -3.59883,0.3 -5.29883,1 -1.6,0.599998 -3.00117,2.100396 -4.20117,4.40039 h -0.29883 L 380,83 h -11.80078 v 3 h 0.20117 c 1.1,-0.1 2.29883,0.199219 3.29883,0.699219 0.9,0.499998 1.30078,1.600394 1.30078,3.40039 v 18.599611 c 0,1.9 -0.50039,3.10156 -1.40039,3.60156 -1.1,0.5 -2.3,0.69922 -3.5,0.69922 h -0.19922 v 3 l -0.0996,0.0996 h 18 v -3 h -0.20117 c -1.1,0.1 -2.29883,-0.19922 -3.29883,-0.69922 C 381.40077,111.9004 381,110.8 381,109 V 96.800781 C 381,95.200785 381.19961,93.599996 381.59961,92 381.89961,90.600002 382.5,89.400389 383.5,88.400391 384.5,87.400393 385.79922,87 387.19922,87 c 1.7,-0.1 3.40078,0.699221 4.30078,2.199219 1,1.899996 1.40078,4.101176 1.30078,6.201172 V 116 h 12.5 v -3 h -0.20117 c -1.1,0 -2.19922,-0.20078 -3.19922,-0.80078 -0.7,-0.5 -1.09961,-1.69961 -1.09961,-3.59961 V 94.199219 c 0,-4.199992 -0.90117,-7.199614 -2.70117,-9.09961 -2,-1.999996 -4.7,-3.10039 -7.5,-2.90039 z"
       style="fill:#e42110;stroke-width:1.00157"
       id="path66" />
    <path
       d="m 350.09961,82.199219 c -1.8,0 -3.59883,0.3 -5.29883,1 -1.6,0.599998 -3.00117,2.100396 -4.20117,4.40039 h -0.29883 L 339.5,83 h -11.80078 v 3 h 0.20117 c 1.1,-0.1 2.29883,0.199219 3.29883,0.699219 0.9,0.499998 1.30078,1.600394 1.30078,3.40039 v 18.599611 c 0,1.9 -0.50039,3.10156 -1.40039,3.60156 -1.1,0.5 -2.3,0.69922 -3.5,0.69922 h -0.19922 v 3 l -0.0996,0.0996 h 18 v -3 h -0.20117 c -1.1,0.1 -2.29883,-0.19922 -3.29883,-0.69922 C 340.90077,111.9004 340.5,110.8 340.5,109 V 96.800781 C 340.5,95.200785 340.69961,93.599996 341.09961,92 341.39961,90.600002 342,89.400389 343,88.400391 344,87.400393 345.29922,87 346.69922,87 c 1.7,-0.1 3.40078,0.699221 4.30078,2.199219 1,1.899996 1.40078,4.101176 1.30078,6.201172 V 116 h 12.5 v -3 h -0.20117 c -1.1,0 -2.19922,-0.20078 -3.19922,-0.80078 -0.7,-0.5 -1.09961,-1.69961 -1.09961,-3.59961 V 94.199219 c 0,-4.199992 -0.90117,-7.199614 -2.70117,-9.09961 -2,-1.999996 -4.7,-3.10039 -7.5,-2.90039 z"
       style="fill:#e42110;stroke-width:1.00157"
       id="path65" />
    <path
       d="m 582.19922,80.800781 c -1.2,0 -2.39844,0.400002 -3.39844,1 -1,0.7 -2.00078,1.49844 -2.80078,2.398438 -0.9,-0.6 -1.99961,-1.098438 -3.09961,-1.398438 -1.3,-0.399998 -2.69961,-0.601562 -4.09961,-0.601562 -4.19998,0 -7.30078,1.000004 -9.30078,3 -2,1.999996 -3,4.800398 -3,8.40039 -0.1,2.199996 0.49922,4.200004 1.69922,6 1,1.600001 2.50078,2.800001 4.30078,3.500001 -1.3,0.8 -2.59961,1.70078 -3.59961,2.80078 -0.8,0.9 -1.30078,2.10039 -1.30078,3.40039 -0.1,1.2 0.40078,2.49844 1.30078,3.39844 0.8,0.8 1.79883,1.50039 2.79883,1.90039 -2.1,0.2 -4.09883,0.90117 -5.79883,2.20117 -1.5,1.3 -2.30117,3.19922 -2.20117,5.19922 -0.2,2.6 1.20039,5.1 3.40039,6.5 2.3,1.5 5.7008,2.19922 10.30078,2.19922 v 0.20117 c 5.79998,0 10.2,-1.10117 13,-3.20117 2.7,-2 4.29922,-5.29922 4.19922,-8.69922 0.2,-2.6 -0.79961,-5.00078 -2.59961,-6.80078 -1.7,-1.7 -4.6,-2.5 -8.5,-2.5 h -7.30078 c -2.2,0 -3.29883,-0.69961 -3.29883,-2.09961 -0.1,-0.8 0.19922,-1.49961 0.69922,-2.09961 0.5,-0.6 1.00117,-1.10039 1.70117,-1.40039 0.6,0.2 1.09922,0.20117 1.69922,0.20117 h 1.80078 c 4.1,0 7.1,-1 9,-3 2,-2.099994 2.89844,-4.901175 2.89844,-7.701171 0,-1.399996 -0.29883,-2.89883 -0.79883,-4.298828 -0.5,-1.299996 -1.2,-2.400392 -2,-3.40039 0.3,-0.2 0.6,-0.4 1,-0.5 0.4,-0.2 0.79922,-0.201172 1.19922,-0.201172 0.6,0 1.19961,0.201172 1.59961,0.701172 0.4,0.499998 0.60156,1.09922 0.60156,1.699218 1.1,0.1 2.29961,-0.2 3.09961,-1 0.6,-0.699998 0.90039,-1.500392 0.90039,-2.40039 0,-0.899998 -0.3,-1.798438 -1,-2.398438 -0.9,-0.699998 -2.00156,-1 -3.10156,-1 z m -13.5,4.798828 c 0.375,-0.025 0.75067,0.0071 1.11328,0.08984 0.72522,0.165552 1.40056,0.535621 1.92578,1.076172 0.26261,0.270276 0.48711,0.583594 0.66211,0.933594 0.7,1.899996 1,3.800785 1,5.800781 0.1,1.899996 -0.2,3.800004 -1,5.5 -0.8,1.300004 -2.20117,2.000394 -3.70117,1.900394 l 0.20117,-0.0996 c -1.5,0.1 -3.00117,-0.60039 -3.70117,-1.900393 -0.8,-1.699998 -1.19961,-3.500395 -1.09961,-5.400391 -0.1,-1.999996 0.2,-4.000785 1,-5.800781 0.6,-1.399998 2.09961,-2.19961 3.59961,-2.09961 z M 566,116.69922 h 6.69922 c 1.4,-0.1 2.80156,0.20078 4.10156,0.80078 1,0.7 1.49844,1.89961 1.39844,3.09961 0.1,1.9 -0.79844,3.80039 -2.39844,4.90039 -1.6,1.2 -4.30117,1.80078 -8.20117,1.80078 H 567.5 c -2.6,0 -4.49922,-0.40039 -5.69922,-1.40039 -1.2,-1 -1.80078,-2.5 -1.80078,-4 -0.1,-1.2 0.20039,-2.30078 0.90039,-3.30078 0.6,-0.8 1.39883,-1.3 2.29883,-1.5 0.9,-0.3 1.90078,-0.40039 2.80078,-0.40039 z"
       style="fill:#e42110;stroke-width:1.00157"
       id="path64" />
    <path
       d="m 236.69922,72.199219 v 3 h 1.90039 c 0.9,0 1.90117,0.201172 2.70117,0.701172 0.7,0.499998 1.09961,1.600394 1.09961,3.40039 v 29.898439 c 0,1.7 -0.40117,2.80117 -1.20117,3.20117 C 240.39922,112.80039 239.4,113 238.5,113 h -1.90039 v 3 h 0.0996 34.90039 L 272,104.90039 h -3.90039 l -0.40039,2.79883 c -0.2,1.2 -0.69844,2.40039 -1.39844,3.40039 -0.8,1 -2.00078,1.50039 -3.30078,1.40039 H 250.90039 V 94.800781 H 265.5 v -3.40039 H 250.90039 V 75.699219 h 10.29883 c 1.2,-0.1 2.40117,0.400783 3.20117,1.300781 0.8,0.999998 1.29883,2.200002 1.29883,3.5 L 266,83.300781 h 3.90039 l -0.30078,-11.101562 z"
       style="fill:#e42110;stroke-width:1.00157"
       id="path63" />
    <path
       d="m 133.59961,69.300781 v 3 h 0.5 c 1.2,0 2.4,0.199219 3.5,0.699219 1,0.499999 1.5,1.600785 1.5,3.300781 v 4 c 0,0.899998 0.0996,2.100004 0.0996,3.5 0.1,1.399998 0.20078,2.599221 0.30078,3.699219 h -0.40039 c -0.9,-1.499998 -2.19961,-2.799221 -3.59961,-3.699219 -1.7,-0.999998 -3.69922,-1.40039 -5.69922,-1.40039 -4.09998,0 -7.10078,1.299615 -9.30078,4.099609 -2.1,2.799994 -3.19922,7.199621 -3.19922,13.099609 0,5.899981 1.09883,10.200391 3.29883,12.900391 2.2,2.7 5.30078,4.09961 9.30078,4.09961 l 0.0996,0.0996 c 2,0.1 4.10078,-0.4 5.80078,-1.5 1.5,-1.1 2.69961,-2.49922 3.59961,-4.19922 h 0.40039 l 1.39844,5.09961 H 152.5 v -3 h -0.30078 c -0.8,0 -1.7,-0.0988 -2.5,-0.29883 -0.8,-0.2 -1.39844,-0.60117 -1.89844,-1.20117 -0.5,-0.9 -0.70117,-1.79883 -0.70117,-2.79883 V 69.300781 Z M 132,86.699219 c 2.7,0 4.59961,1.100785 5.59961,3.300781 1,2.199996 1.5,5.200008 1.5,9.5 0,4.3 -0.5,7.49961 -1.5,9.59961 -1,2.1 -2.89961,3.09961 -5.59961,3.09961 l 0.0996,0.10156 c -2.2,0.1 -4.2,-1.20117 -5,-3.20117 -1,-2.1 -1.5,-5.3 -1.5,-9.500001 0,-4.19999 0.5,-7.399613 1.5,-9.599609 0.35,-0.999998 1.02607,-1.825196 1.88867,-2.400391 0.86232,-0.574588 1.91234,-0.90039 3.01172,-0.90039 z"
       style="fill:#e42110;stroke-width:1.00157"
       id="path62" />
    <path
       d="m 315.40039,68.800781 c -1.1,0 -2.30117,0.300002 -3.20117,1 -1.8,1.799996 -1.8,4.598442 0,6.398438 0.9,0.699998 2.00117,1 3.20117,1 1.2,0 2.29883,-0.300002 3.29883,-1 1.8,-1.799996 1.8,-4.69844 0,-6.398438 -1,-0.699998 -2.09883,-1 -3.29883,-1 z"
       style="fill:#e42110;stroke-width:1.00157"
       id="path61" />
    <path
       d="m 263.80078,14.199219 v 3 h 0.59961 c 0.7,0 1.39961,0.100781 2.09961,0.300781 0.7,0.2 1.30078,0.599611 1.80078,1.099609 0.5,0.7 0.69922,1.600002 0.69922,2.5 v 19 c 0.1,0.899998 -0.19922,1.799612 -0.69922,2.59961 -0.5,0.499998 -1.10078,0.901562 -1.80078,1.101562 -0.7,0.300028 -1.39961,0.298828 -2.09961,0.298828 h -0.80078 v 3 h 18.80078 v -3 h -0.70117 c -0.8,0 -1.49922,-0.09883 -2.19922,-0.298828 -0.7,-0.1 -1.40078,-0.501564 -1.80078,-1.101562 C 277.19922,41.899221 277,40.999998 277,40 V 14.199219 Z"
       style="fill:#e42110;stroke-width:1.00157"
       id="path60" />
    <path
       d="m 283.5,14.099609 v 3 c 1,-0.1 2.1,0.09961 3,0.59961 0.8,0.599998 1.39922,1.500002 1.69922,2.5 l 10,26.90039 L 298.30078,47 H 305.5 l 9.19922,-25.300781 c 0.4,-1.399998 1.1,-2.69883 2,-3.798828 0.6,-0.5 1.40078,-0.800782 2.30078,-0.800782 h 1 v -3 h -13.40039 v 3 h 1.30078 c 2,0 3,0.701176 3,2.201172 0,0.5 -0.20117,1.000002 -0.20117,1.5 -0.1,0.5 -0.3,1.09961 -0.5,1.59961 l -4.29883,12.199218 c -0.3,1.099998 -0.70117,2.301176 -1.20117,3.701172 -0.5,1.399998 -0.8,2.600002 -1,3.5 -0.2,-1.099998 -0.5,-2.400394 -1,-3.90039 -0.4,-1.499998 -0.89844,-3.000393 -1.39844,-4.400391 l -4.20117,-11.599609 -0.29883,-1.201172 c -0.20017,-0.4 -0.20117,-0.89883 -0.20117,-1.298828 0,-1.499998 0.79961,-2.300782 2.59961,-2.300782 h 1.90039 v -3 z"
       style="fill:#e42110;stroke-width:1.00157"
       id="path59" />
    <path
       d="m 182.69922,13.5 c -2.6,0 -4.39961,0.499611 -5.59961,1.599609 -1.3,1.299998 -2.3,2.800395 -3,4.400391 h -0.29883 l -1.20117,-5.300781 h -11.29883 v 3 H 161.5 c 1.2,-0.1 2.40039,0.201172 3.40039,0.701172 0.9,0.399998 1.29883,1.600394 1.29883,3.40039 v 18.298828 c 0,1.999996 -0.49844,3.201174 -1.39844,3.701172 -1.1,0.6 -2.3,0.798828 -3.5,0.798828 h -0.20117 v 3 h 19.5 v -3 h -1.90039 c -1.1,0 -2.19922,-0.19922 -3.19922,-0.699218 -0.9,-0.5 -1.30078,-1.600395 -1.30078,-3.400391 V 29.699219 c 0,-1.099998 0.10117,-2.099221 0.20117,-3.199219 0.1,-1.299998 0.39883,-2.499221 0.79883,-3.699219 0.3,-1.099998 0.90156,-2.100002 1.60156,-3 0.7,-0.799998 1.69922,-1.201172 2.69922,-1.201172 1,-0.1 1.90039,0.401174 2.40039,1.201172 0.5,1.199998 0.69922,2.498832 0.69922,3.798828 1.8,0.1 3.70117,-0.400392 5.20117,-1.40039 1.2,-0.899998 1.79883,-2.39844 1.79883,-3.898438 0,-3.199994 -2.30041,-4.800781 -6.90039,-4.800781 z"
       style="fill:#e42110;stroke-width:1.00157"
       id="path58" />
    <path
       d="m 208.09961,13.300781 c -2.5,0 -5.10039,0.499612 -7.40039,1.59961 -2.3,1.199996 -4.09922,3.100396 -5.19922,5.40039 -1.3,2.499996 -1.90039,5.998446 -1.90039,10.398438 -0.1,3.399992 0.50039,6.800396 1.90039,9.90039 1.1,2.299996 2.89922,4.200393 5.19922,5.400391 2.4,1.199998 5.10117,1.699219 7.70117,1.699219 V 47.5 c 2.2,0.1 4.30039,-0.300002 6.40039,-1 1.4,-0.5 2.69922,-1.400002 3.69922,-2.5 0.7,-0.799998 1.19922,-1.900002 1.19922,-3 0.1,-0.999998 -0.39883,-1.999611 -1.29883,-2.599609 -0.8,1.399996 -1.90078,2.600392 -3.30078,3.40039 -1.6,0.999998 -3.39883,1.398438 -5.29883,1.398438 -2.9,0 -4.90117,-1.099223 -6.20117,-3.199219 -1.3,-2.099996 -1.90039,-5.300008 -1.90039,-9.5 -0.1,-2.799994 0.20078,-5.600787 0.80078,-8.300781 0.3,-1.599998 1.10078,-3.099221 2.30078,-4.199219 1,-0.799998 2.2,-1.199219 3.5,-1.199219 1.6,-0.1 3.09961,0.798832 3.59961,2.298828 0.6,1.799998 0.90039,3.600395 0.90039,5.400391 2.7,0 4.5,-0.500393 5.5,-1.400391 1,-0.899998 1.5,-2.100394 1.5,-3.40039 0,-1.899996 -1.10078,-3.399612 -3.30078,-4.59961 -2.6,-1.299996 -5.50039,-1.898828 -8.40039,-1.798828 z"
       style="fill:#e42110;stroke-width:1.00157"
       id="path57" />
    <path
       d="M 133.80078,3.1992188 120.30078,39.5 c -0.4,1.399998 -1.10156,2.599221 -2.10156,3.699219 -0.8,0.599998 -1.79883,0.90039 -2.79883,0.90039 H 114.5 V 47 h 15.59961 V 44 H 128 c -0.8,0.1 -1.60078,-0.09961 -2.30078,-0.599609 -0.6,-0.5 -0.89844,-1.200002 -0.89844,-2 0,-0.5 0.0992,-1.000002 0.19922,-1.5 0.2,-0.6 0.3,-1.09961 0.5,-1.59961 L 127.5,32.5 h 15.40039 l 2.19922,6.5 c 0.2,0.4 0.30039,0.799219 0.40039,1.199219 0.2,0.399998 0.19922,0.900781 0.19922,1.300781 0.1,0.799998 -0.29844,1.5 -0.89844,2 -0.6,0.4 -1.40156,0.599609 -2.10156,0.599609 h -2 v 3 h 19 v -3 h -1 c -1,0.1 -1.89922,-0.198828 -2.69922,-0.798828 -0.9,-0.899998 -1.60039,-2.001174 -1.90039,-3.201172 L 140.80078,3.1992188 Z m 1.59961,6.1015625 c 0.4,1.3999977 0.79883,2.8996117 1.29883,4.5996097 0.5,1.599996 1.10156,3.19883 1.60156,4.798828 l 3.39844,10.40039 h -13 l -0.0996,0.09961 L 132.5,18.400391 c 0.6,-1.599998 0.99961,-3.101176 1.59961,-4.701172 0.6,-1.599998 1.00078,-2.99844 1.30078,-4.3984377 z m 72.69922,3.9999997 c 2.9,-0.1 5.80039,0.498832 8.40039,1.798828 2.2,1.199998 3.30078,2.699614 3.30078,4.59961 0,1.299996 -0.5,2.500392 -1.5,3.40039 -1,0.899998 -2.8,1.400391 -5.5,1.400391 0,-1.799996 -0.30039,-3.600393 -0.90039,-5.400391 -0.5,-1.499996 -1.99961,-2.398828 -3.59961,-2.298828 -1.3,0 -2.5,0.399221 -3.5,1.199219 -1.2,1.099998 -2.00078,2.599221 -2.30078,4.199219 -0.6,2.699994 -0.90078,5.500787 -0.80078,8.300781 0,4.199992 0.60039,7.400004 1.90039,9.5 1.3,2.099996 3.30117,3.199219 6.20117,3.199219 1.9,0 3.69883,-0.39844 5.29883,-1.398438 1.4,-0.799998 2.50078,-2.000394 3.30078,-3.40039 0.9,0.599998 1.39883,1.599611 1.29883,2.599609 0,1.099998 -0.49922,2.200002 -1.19922,3 -1,1.099998 -2.29922,2 -3.69922,2.5 -2.1,0.699998 -4.20039,1.1 -6.40039,1 v 0.199219 c -2.6,0 -5.30117,-0.499221 -7.70117,-1.699219 -2.3,-1.199998 -4.09922,-3.100395 -5.19922,-5.400391 -1.4,-3.099994 -2.00039,-6.500398 -1.90039,-9.90039 0,-4.399992 0.60039,-7.898442 1.90039,-10.398438 1.1,-2.299994 2.89922,-4.200394 5.19922,-5.40039 2.3,-1.099998 4.90039,-1.59961 7.40039,-1.59961 z M 182.69922,13.5 c 4.59998,0 6.90039,1.600787 6.90039,4.800781 0,1.499998 -0.59883,2.99844 -1.79883,3.898438 -1.5,0.999998 -3.40117,1.50039 -5.20117,1.40039 0,-1.299996 -0.19922,-2.59883 -0.69922,-3.798828 -0.5,-0.799998 -1.40039,-1.301172 -2.40039,-1.201172 -1,0 -1.99922,0.401174 -2.69922,1.201172 -0.7,0.899998 -1.30156,1.900002 -1.60156,3 -0.4,1.199998 -0.69883,2.399221 -0.79883,3.699219 -0.1,1.099998 -0.20117,2.099221 -0.20117,3.199219 V 40 c 0,1.799996 0.40078,2.900391 1.30078,3.400391 1,0.499998 2.09922,0.699218 3.19922,0.699218 h 1.90039 v 3 h -19.5 v -3 h 0.20117 c 1.2,0 2.4,-0.198828 3.5,-0.798828 0.9,-0.499998 1.39844,-1.701176 1.39844,-3.701172 V 21.300781 c 0,-1.799996 -0.39883,-3.000392 -1.29883,-3.40039 -1,-0.5 -2.20039,-0.801172 -3.40039,-0.701172 h -0.19922 v -3 h 11.29883 L 173.80078,19.5 h 0.29883 c 0.7,-1.599996 1.7,-3.100393 3,-4.400391 1.2,-1.099998 2.99961,-1.599609 5.59961,-1.599609 z M 283.5,14.099609 h 17.59961 v 3 h -1.90039 c -1.8,0 -2.59961,0.800784 -2.59961,2.300782 0,0.399998 0.001,0.898828 0.20117,1.298828 l 0.29883,1.201172 L 301.30078,33.5 c 0.5,1.399998 0.99844,2.900393 1.39844,4.400391 0.5,1.499996 0.8,2.800392 1,3.90039 0.2,-0.899998 0.5,-2.100002 1,-3.5 0.5,-1.399996 0.90117,-2.601174 1.20117,-3.701172 l 4.29883,-12.199218 c 0.2,-0.5 0.4,-1.09961 0.5,-1.59961 0,-0.499998 0.20117,-1 0.20117,-1.5 0,-1.499996 -1,-2.201172 -3,-2.201172 h -1.30078 v -3 H 320 v 3 h -1 c -0.9,0 -1.70078,0.300782 -2.30078,0.800782 -0.9,1.099998 -1.6,2.39883 -2,3.798828 L 305.5,47 h -7.19922 l -0.10156,0.09961 -10,-26.90039 c -0.3,-0.999998 -0.89922,-1.900002 -1.69922,-2.5 -0.9,-0.5 -2,-0.69961 -3,-0.59961 z m -19.69922,0.09961 H 277 V 40 c 0,0.999998 0.19922,1.899221 0.69922,2.699219 0.4,0.599998 1.10078,1.001562 1.80078,1.101562 0.7,0.2 1.39922,0.298828 2.19922,0.298828 h 0.70117 v 3 h -18.80078 v -3 h 0.80078 c 0.7,0 1.39961,0.0012 2.09961,-0.298828 0.7,-0.2 1.30078,-0.601564 1.80078,-1.101562 0.5,-0.799998 0.79922,-1.699612 0.69922,-2.59961 v -19 c 0,-0.899998 -0.19922,-1.8 -0.69922,-2.5 C 267.80078,18.099611 267.2,17.7 266.5,17.5 c -0.7,-0.2 -1.39961,-0.300781 -2.09961,-0.300781 h -0.59961 z"
       style="fill:#e42110;stroke-width:1.00157"
       id="path56" />
    <path
       d="M 223.09961,0.40039063 V 3.4003906 h 0.70117 c 0.7,0 1.39961,0.098828 2.09961,0.2988282 0.7,0.1999996 1.29883,0.6015634 1.79883,1.1015624 0.6,0.6999987 0.80078,1.6000018 0.80078,2.5 V 39.800781 c 0,1.899996 -0.50039,3.09961 -1.40039,3.59961 -1.1,0.499998 -2.3,0.699218 -3.5,0.699218 h -0.29883 v 3 l 0.0996,0.09961 h 18 v -3 h -0.20117 C 240.09923,44.299219 238.90039,44 237.90039,43.5 237.00039,43 236.5,41.899607 236.5,40.099609 V 27.900391 c 0,-1.599998 0.19961,-3.300395 0.59961,-4.900391 0.3,-1.299998 1.00039,-2.500002 1.90039,-3.5 1,-0.899998 2.29961,-1.300781 3.59961,-1.300781 1.7,-0.1 3.40078,0.701174 4.30078,2.201172 1,1.899996 1.39883,4.099222 1.29883,6.199218 v 20.59961 h 12.5 v -3 H 260.5 c -1.1,0 -2.19922,-0.19883 -3.19922,-0.798828 -0.7,-0.5 -1.10156,-1.699614 -1.10156,-3.59961 v -14.40039 c 0,-4.199992 -0.89922,-7.199614 -2.69922,-9.09961 -2.1,-1.999996 -4.89922,-3.10039 -7.69922,-2.90039 -1.8,-0.1 -3.60078,0.3 -5.30078,1 -1.8,0.899998 -3.2,2.399222 -4,4.199218 h -0.30078 V 17.5 c 0.1,-0.699998 0.20117,-1.599221 0.20117,-2.699219 v -3 -11.40039037 z"
       style="fill:#e42110;stroke-width:1.00157"
       id="path55" />
    <path
       d="m 272.69922,0 c -1.1,0 -2.29922,0.3000014 -3.19922,1 -0.9,0.7999984 -1.40078,1.9992211 -1.30078,3.1992187 -0.1,1.1999978 0.40078,2.4011735 1.30078,3.2011719 0.9,0.6999986 1.99922,1 3.19922,1 1.2,0 2.30078,-0.3000014 3.30078,-1 1,-0.7999984 1.50039,-2.0011741 1.40039,-3.2011719 C 277.50039,2.9992211 277,1.7999984 276,1 275,0.3000014 273.89922,0 272.69922,0 Z"
       style="fill:#e42110;stroke-width:1.00157"
       id="path54" />
  </g>
  <path
     id="Pfad_424"
     class="st1"
     d="M 0,21.3 V 9 h 88.3 v 12.3 z" />
  <path
     id="Pfad_425"
     class="st1"
     d="M 0,45.9 V 33.6 h 88.3 v 12.3 z" />
</svg>
